<svg width="69" height="75" viewBox="0 0 69 75" fill="none" xmlns="http://www.w3.org/2000/svg" class="ml-12">
<path d="M32.6837 63.8914C32.0893 64.2677 30.7844 65.1904 29.1978 66.0865C27.6469 67.0318 25.8233 67.9684 24.4154 68.7078C17.8628 72.0823 10.5979 74.259 3.23701 74.4815C2.08768 74.4872 0.142435 74.6682 0.0282251 72.4099C-0.0905623 70.0532 0.967821 68.5718 2.7521 68.4715C7.08523 68.1225 11.5791 67.5587 15.5528 65.6449C21.3234 62.8973 27.0223 60.0067 31.9373 55.9542C34.1357 54.1361 36.1953 52.1751 38.1474 50.1114C40.0771 48.0253 41.8233 45.774 43.386 43.4021C46.2523 38.8777 48.1745 33.8758 49.8373 28.8697C51.304 24.5659 52.8288 20.1771 53.4277 15.5702C53.4942 15.0335 53.4578 14.4253 53.4079 13.8127C53.3357 13.2 53.2545 12.5696 53.2941 11.9792C53.387 11.0042 53.3405 9.37193 53.5273 8.38339C53.6163 7.95844 53.6739 7.51564 53.5706 7.10879C53.0588 5.26234 53.8319 4.66226 56.453 5.0709C57.0255 5.1642 57.7542 4.92192 58.1796 5.39104C58.202 5.41338 58.2333 5.45358 58.2512 5.46698C59.0883 6.1548 59.353 6.92818 59.4209 7.71073C59.4575 8.49778 59.2929 9.28506 59.3295 10.0721C59.5524 17.8355 58.1923 25.6095 55.5928 32.9421C53.9787 37.4428 51.7516 41.6803 49.4171 45.8598C48.8012 47.0187 48.2927 48.2804 47.3546 49.2429L47.368 49.225C46.618 50.4065 45.8365 51.5701 44.9522 52.6622C41.5084 56.6819 37.51 60.5769 33.2555 63.3586C33.0902 63.4974 32.925 63.7257 32.6837 63.8914Z" fill="#60a5fa"/>
<path d="M53.2173 11.536C52.8108 11.9523 51.3186 13.3716 50.4431 14.3474C48.4018 16.6125 46.3022 18.8285 43.6968 20.5485C43.2856 20.8218 42.7227 21.3948 41.0887 19.8313C39.3876 18.2008 38.7646 16.8687 39.3901 16.3314C40.9226 15.015 42.7014 13.9219 43.7773 12.1855C45.3488 9.65263 47.5829 7.7496 49.4946 5.53833C50.245 4.66993 51.0267 3.84178 51.8084 3.0136L52.2864 2.51667C52.474 2.33311 52.6527 2.15404 52.8449 1.97942C53.2291 1.63019 53.6312 1.31671 54.0513 1.06135C54.8915 0.528274 55.8259 0.20528 56.8052 0.12821C57.3776 0.109711 57.9634 0.118045 58.5226 0.273974C59.5515 0.518845 60.4957 1.04104 61.3283 1.76464C62.1519 2.47036 62.8819 3.48031 63.442 4.41886C63.648 4.74063 63.8497 5.12052 64.0021 5.37974L64.4545 6.19323C64.7503 6.73851 65.0147 7.28831 65.2568 7.86049C66.0907 9.81393 66.4106 11.9915 67.0702 14.0211C67.2228 14.5039 67.8493 14.8834 68.0421 15.402C68.1991 15.8267 68.486 16.533 68.482 17.016C68.4867 17.2262 68.4646 17.4498 68.6168 17.5972C69.3196 18.2405 68.6629 18.7823 66.1727 19.5496C65.6317 19.7202 64.9747 20.0831 64.5319 20.0478C64.5095 20.0479 64.4738 20.0434 64.4514 20.0434C62.761 20.0855 63.1625 19.1906 62.8667 18.6006C61.4013 15.6998 60.0833 12.7362 58.6982 9.79496L58.0842 8.43606C57.8735 7.97118 57.6897 7.53757 57.5463 7.29623C57.4478 7.14428 57.2732 6.99691 57.0988 7.09548C56.9871 7.14032 56.9114 7.50266 56.8933 7.33274L56.8933 7.31038C56.8442 7.41329 56.8757 7.58768 56.8757 7.58768L56.8669 7.59211L56.8624 7.60553C56.8401 7.62792 56.916 7.55628 56.7776 7.70401L55.6742 8.93951C54.9327 9.7587 54.1777 10.5511 53.3913 11.2362C53.302 11.3034 53.2977 11.4509 53.2173 11.536Z" fill="#60a5fa"/>
</svg>