<svg width="210" height="14" viewBox="0 0 210 14" fill="none" xmlns="http://www.w3.org/2000/svg">
<path d="M209.988 8.12046C209.933 7.3607 209.808 6.71847 209.638 6.33174C209.596 6.23606 209.552 6.15658 209.506 6.0943C209.47 6.03322 209.432 5.98552 209.394 5.95182L209.254 5.84103L209.048 5.71439C208.081 5.35032 207.199 5.27118 206.279 5.12871L203.56 4.84377L198.069 4.51137L184.274 4.09979L186.798 3.79903H187.26C190.119 3.48244 189.113 2.89677 189.979 2.43772C193.933 0.379906 190.81 -0.253273 178.988 0.0949722C176.413 0.0949722 173.687 0.0949722 171.061 0.0949722L148.586 0L126.224 0.348247L83.0602 0.158291L61.4823 0.0633188H50.67C47.0776 0.0633188 43.4774 0.0633164 39.8772 0.22161C35.7087 0.379903 31.5401 0.606791 27.3716 0.902272L21.115 1.44048L17.9808 1.85203L17.2041 1.9945L16.8157 2.08947L16.5982 2.16862H16.4739H16.3807L16.2797 2.27943C16.4584 3.19753 15.6972 0.0949654 15.969 7.18651C16.2487 8.12044 16.3069 7.93049 16.3302 8.00964H16.4079H16.4972H16.6215H16.8351H17.2235H18.0002C22.2024 8.27874 26.3502 8.24709 30.5252 8.29458H35.1041C29.6669 8.3579 24.2297 8.45286 18.7925 8.5795C13.1728 8.72196 8.53172 9.18102 5.26552 9.84585C1.99931 10.5107 0.115706 11.3338 0.00307862 12.2677C-0.210526 14.1039 10.7416 13.4866 17.1808 13.4075C37.7903 12.9642 58.4219 12.8587 79.0755 13.0909L141.052 13.4391C158.917 13.5499 186.767 13.4391 194.647 13.17L198.919 12.9959C200.69 12.9959 202.477 12.9959 204.275 12.7901C205.173 12.7162 206.08 12.6002 206.993 12.4419C207.448 12.4419 207.902 12.2836 208.364 12.1411C208.597 12.1411 208.823 12.0145 209.079 11.8878C209.133 11.8878 209.215 11.8087 209.293 11.7612H209.347H209.378L209.467 11.6662C209.523 11.5876 209.578 11.4924 209.631 11.3813L209.708 11.2072C209.778 10.9381 210.062 10.8431 209.988 8.12046ZM100.409 8.51619C91.383 8.57951 82.3301 8.57951 73.25 8.51619H93.0569H105.236H100.409Z" fill="#60a5fa"/>
</svg>
