<svg width="251" height="169" viewBox="0 0 251 169" fill="none" xmlns="http://www.w3.org/2000/svg">
<path d="M82.9769 58.8427C81.0137 52.5165 79.5487 52.9851 78.611 52.9851C72.9329 52.8533 67.2689 53.6042 61.8215 55.211C59.4774 55.7382 55.6975 56.0899 54.6426 56.2071C54.4375 56.2071 54.2617 56.5585 54.1152 56.5585C52.7329 56.6041 51.354 56.7214 49.9838 56.91C49.808 55.387 49.72 53.981 49.5442 52.3409C48.8996 47.0691 48.4308 41.7972 47.5224 36.5547C47.3466 35.5003 49.3684 34.2702 44.5923 33.6259H44.3872C42.7294 33.4948 41.0637 33.4948 39.4059 33.6259C31.8169 33.6259 29.4435 34.2997 30.6155 35.6176C30.8792 35.9105 30.6157 36.2619 30.3813 36.6133C29.9851 37.4748 29.804 38.4197 29.8537 39.3666C29.8537 40.2452 31.1137 41.1528 31.0551 41.9729C30.2516 45.4415 29.7129 48.9665 29.4436 52.5168C29.7524 55.2381 30.3516 57.9185 31.2309 60.5123C29.1212 60.6587 27.0116 60.6586 24.9019 60.7172C18.8952 60.8929 12.8883 60.7173 6.82293 60.4537C5.56298 60.4537 4.65471 58.1691 2.86733 62.5623V62.7675C2.35728 64.3581 2.01348 65.997 1.84168 67.6584C0.259413 75.0975 0.376718 77.5286 2.3106 76.6206C2.72082 76.4156 3.07248 76.7965 3.45339 77.0893C4.45602 77.6836 5.57567 78.0533 6.73512 78.173C7.84857 78.378 9.16707 77.2648 10.1633 77.4991C14.3604 78.8739 18.6767 79.8544 23.0559 80.4278C26.6809 80.3757 30.2883 79.914 33.8095 79.0514C33.7455 83.1986 34.4201 87.3242 35.8019 91.2353C37.2377 94.3691 35.8018 97.7957 35.5381 101.105C35.3916 102.482 39.4645 103.038 46.3503 102.54C53.2361 102.042 52.8845 100.754 53.1482 99.963C54.5583 95.0812 54.829 89.9411 53.9394 84.9383C53.705 82.8003 53.7635 79.4323 53.7049 78.4658C53.7049 78.2608 53.3827 78.1142 53.3827 77.9678C53.3827 77.8213 53.3827 77.0013 53.3827 76.5327H53.9981C59.8583 75.3612 65.7184 75.2148 71.2564 72.1688C74.8897 70.0601 79.2263 70.5873 83.3285 70.0015C85.1745 69.5915 85.028 65.4325 82.9769 58.8427Z" fill="#60A5FA"/>
<path d="M173.371 134.758C170.939 128.608 169.884 128.901 169.18 128.901C164.955 128.612 160.713 129.109 156.669 130.365C154.919 130.693 153.145 130.879 151.365 130.921C151.219 130.921 151.102 131.244 150.984 131.244C148.469 131.213 145.954 131.34 143.454 131.625C143.454 130.658 143.454 129.692 143.454 128.696C143.102 124.478 142.897 120.29 142.253 116.102C142.253 115.253 144.245 114.345 139.615 113.642H139.41C137.752 113.533 136.088 113.533 134.429 113.642C126.84 113.642 124.467 113.876 125.639 114.96C125.902 115.194 125.639 115.458 125.346 115.721C124.911 116.359 124.686 117.117 124.701 117.889C124.701 118.621 125.873 119.353 125.727 119.997C124.758 122.698 124.042 125.482 123.588 128.315C123.647 129.546 123.854 130.765 124.203 131.947C121.537 131.449 118.87 130.863 116.204 130.248C115.266 130.014 115.237 127.729 112.717 131.683L112.57 131.859C111.761 133.321 111.056 134.838 110.461 136.399C107.208 143.252 106.681 145.624 108.497 145.185C108.878 145.185 109.084 145.478 109.318 145.829C109.962 146.583 110.804 147.141 111.75 147.44C112.6 147.821 113.947 146.971 114.68 147.44C117.805 149.508 121.196 151.143 124.76 152.302C125.329 152.425 125.907 152.503 126.489 152.536C126.372 154.909 126.814 157.277 127.778 159.448C129.067 161.996 127.543 164.661 126.987 167.268C126.752 168.351 130.796 168.937 137.711 168.762C144.626 168.586 144.333 167.531 144.655 166.916C146.296 163.182 146.834 159.056 146.208 155.026C146.15 153.943 146.15 152.858 146.208 151.775C147.759 151.741 149.306 151.604 150.838 151.365C155.673 150.574 160.8 150.691 165.195 147.791C168.126 145.829 171.788 146.415 175.217 145.8C176.535 145.214 175.92 141.172 173.371 134.758Z" fill="#60A5FA"/>
<path d="M250.93 49.382C250.608 42.7629 249.055 42.8216 248.146 42.5287C242.406 41.061 236.435 40.7229 230.565 41.533C228.046 41.7381 224.119 41.533 223.006 41.533C222.771 41.533 222.566 41.8258 222.42 41.8258C220.869 41.7087 219.312 41.7087 217.761 41.8258C217.526 40.8593 217.087 39.8928 216.765 38.8971C217.204 37.6963 216.091 36.7298 215.71 35.6462C214.603 31.7112 213.867 27.6811 213.512 23.6089C212.457 17.0191 211.608 10.429 210.289 3.89784C210.025 2.5506 211.959 0.969056 207.359 0.236859H207.154C205.481 0.124096 203.801 0.193036 202.143 0.442074C194.554 0.764241 192.239 1.52585 193.587 3.13669C193.88 3.51743 193.587 3.95652 193.411 4.36655C193.07 5.49475 192.97 6.68257 193.119 7.85199C193.119 8.96493 194.496 10.0485 194.496 11.0736C193.957 15.4656 193.693 19.8869 193.705 24.3118C194.232 29.3493 196.342 34.1523 197.309 39.1312C197.69 41.0642 197.953 43.0265 198.188 44.9888C196.254 44.9888 194.291 45.2232 192.327 45.3989C186.145 45.9554 179.962 46.3361 173.809 47.1854C172.549 47.1854 171.172 45.2819 170.205 49.9386C170.205 49.9386 170.205 50.0849 170.205 50.1435C170.037 51.7989 170.037 53.4673 170.205 55.1227C170.029 62.7082 170.615 65.0805 172.197 63.909C172.549 63.6454 172.959 63.9089 173.34 64.1725C174.354 64.5814 175.442 64.7709 176.534 64.7288C177.589 64.7288 178.673 63.4987 179.64 63.5865C183.688 64.445 187.79 65.0226 191.917 65.3148C194.949 65.0854 197.951 64.5655 200.883 63.7624C201.187 66.8578 201.927 69.8946 203.081 72.783C204.781 76.6783 203.696 80.9838 203.579 85.1427C203.579 86.8707 207.652 87.4855 214.479 86.6654C221.306 85.8453 220.925 84.264 221.131 83.2389C222.159 77.0022 222.04 70.63 220.779 64.436C220.779 63.6159 220.545 62.6789 220.457 61.7124H220.896C226.463 61.0388 232.06 61.7122 237.569 59.6621C241.29 58.2562 245.245 59.6621 249.113 60.0721C250.432 60.3357 251.252 56.4111 250.93 49.382Z" fill="#60A5FA"/>
</svg>
