<svg width="64" height="30" viewBox="0 0 64 30" fill="none" xmlns="http://www.w3.org/2000/svg">
<path d="M13.1483 17.9278C13.6716 18.1823 15.4888 19.1511 16.6909 19.6743C19.484 20.8976 22.2488 22.1917 24.7025 24.1221C25.0914 24.4261 25.8126 24.7797 24.8439 26.8232C23.8327 28.9516 22.765 29.9628 22.0579 29.5385C20.3255 28.499 18.7274 27.1555 16.7404 26.6818C13.8413 25.9888 11.3311 24.4685 8.62991 23.3513C7.56925 22.9129 6.53691 22.4321 5.50454 21.9513L4.88226 21.6543C4.64892 21.5341 4.42265 21.4209 4.19637 21.2937C3.74383 21.0391 3.31957 20.7563 2.9448 20.4381C2.17406 19.8087 1.57301 19.0238 1.19117 18.1187C0.993186 17.5813 0.81643 17.0228 0.788146 16.4429C0.696222 15.3893 0.894147 14.3286 1.31841 13.3104C1.72853 12.3063 2.45689 11.2952 3.17107 10.4678C3.41148 10.1709 3.70842 9.85969 3.90641 9.63341L4.53579 8.94758C4.96006 8.49503 5.39848 8.07079 5.86517 7.66067C7.45616 6.25352 9.42184 5.2635 11.1401 3.99778C11.5502 3.70079 11.7129 2.98661 12.1442 2.64013C12.4978 2.35729 13.0776 1.86237 13.5373 1.71387C13.7353 1.64316 13.9545 1.59368 14.0464 1.40276C14.4353 0.533017 15.1565 0.985519 16.6697 3.10684C17.0021 3.56646 17.5536 4.07562 17.6597 4.50696C17.6668 4.52817 17.6738 4.56349 17.6809 4.5847C18.2536 6.17569 17.2778 6.07671 16.8112 6.5434C14.5201 8.84857 12.1231 11.0335 9.76839 13.2751L8.67233 14.2862C8.29757 14.6327 7.94399 14.9438 7.76014 15.1559C7.64701 15.2973 7.5622 15.5095 7.71069 15.6439C7.78847 15.7358 8.1562 15.6934 8.00063 15.7641L7.97941 15.7712C8.09255 15.7853 8.24812 15.7005 8.24812 15.7005L8.25511 15.7075L8.26926 15.7075C8.29754 15.7216 8.20562 15.6721 8.38947 15.757L9.90978 16.4146C10.9209 16.8601 11.9109 17.3268 12.809 17.8571C12.8938 17.9278 13.0422 17.8783 13.1483 17.9278Z" fill="#60A5FA"/>
<path d="M45.5616 11.069C46.4101 11.2811 49.295 12.4549 51.1406 13.169C55.4115 14.8661 59.4986 17.2137 62.7584 20.4876C63.2675 20.9967 64.2362 21.7251 62.815 23.4858C61.3371 25.3172 59.9017 25.9748 59.0673 25.2535C58.5511 24.8222 58.0702 24.3413 57.5399 23.91L55.9278 22.6514C54.86 21.7958 53.6367 21.1806 52.3639 20.7139C48.588 19.4694 45.0595 17.7935 41.2128 16.8743C37.7763 16.0964 34.3044 15.4248 30.783 15.2551C27.4667 15.2056 24.1857 15.7005 20.9542 16.047C19.5471 16.1531 18.147 16.2945 16.7186 16.3086C15.3186 16.4642 13.8619 16.5207 12.4689 16.8106C11.8113 16.9591 11.1537 17.5884 10.4466 17.7581C9.84554 17.8783 8.9122 18.2461 8.27581 18.2602C8.00711 18.2744 7.71716 18.2673 7.50503 18.437C6.5575 19.2007 5.94233 18.5572 5.33422 16.0258C5.19987 15.4671 4.81807 14.8166 4.95949 14.3499C4.96656 14.3287 4.9736 14.2934 4.98067 14.2721C5.28473 12.4832 6.48683 12.8084 7.38485 12.4337C11.9033 10.7013 16.6833 9.68299 21.4916 9.20216C22.227 9.13145 22.9695 9.03957 23.712 9.01836L25.9394 8.95474C27.4243 8.85574 28.9021 8.93348 30.4012 8.82034C31.2214 8.74963 32.0558 8.5092 32.8689 8.79911L32.8548 8.79911C33.7175 8.81325 34.6084 8.74254 35.464 8.84861C38.6955 9.37894 42.125 9.83861 45.0737 11.0053C45.1939 11.069 45.3848 11.0195 45.5616 11.069Z" fill="#60A5FA"/>
</svg>
