<svg width="306" height="201" viewBox="0 0 306 201" fill="none" xmlns="http://www.w3.org/2000/svg">
<path d="M80.2019 0.3463C75.9872 0.477288 71.5798 0.723855 66.9105 1.2401C64.599 1.49437 62.1796 1.81798 59.6985 2.24947C57.2175 2.68096 54.6902 3.19721 51.9009 3.9292C49.0218 4.68321 46.1913 5.61213 43.4253 6.71076C40.0658 8.0262 36.8383 9.65668 33.7861 11.5804C31.7474 12.8788 29.815 14.3371 28.0073 15.9415C25.4962 18.1579 23.2865 20.694 21.4347 23.4848C18.7101 27.6017 16.8998 32.2549 16.1259 37.1307C15.9076 38.5054 15.7763 39.8925 15.7329 41.2837C15.7019 42.6615 15.7405 44.0399 15.8485 45.4137C15.9811 46.7071 16.1792 47.9929 16.4418 49.2663C16.5035 49.5745 16.5651 49.9058 16.6422 50.1986C14.4795 52.0393 12.4743 54.0573 10.6475 56.2317C8.06328 59.3042 5.91162 62.7158 4.25233 66.3717C3.78232 67.3811 3.32002 68.5754 2.91164 69.7542C2.4803 70.9846 2.11503 72.2372 1.81748 73.5067C1.16616 76.2624 0.81994 79.0815 0.785016 81.913C0.780205 83.3848 0.852146 84.8559 1.00069 86.3203C1.1625 87.7689 1.4091 89.2097 1.7096 90.6275C2.0101 92.0452 2.42618 93.3628 2.87308 94.6804C3.31998 95.998 3.82085 97.1846 4.36021 98.3712C6.2085 102.289 8.6459 105.901 11.5876 109.081C13.8046 111.491 16.2596 113.669 18.9151 115.584L20.6488 116.802L22.3131 117.873C23.2069 118.443 24.0237 118.905 24.8636 119.414C24.3936 120.184 23.9467 120.893 23.5306 121.656C23.3996 121.88 23.2609 122.149 23.1299 122.427L22.7293 123.274C22.475 123.837 22.2284 124.415 21.9587 124.985C21.4854 126.244 21.0866 127.531 20.7644 128.837C20.4466 130.221 20.215 131.624 20.0709 133.037C19.9517 134.477 19.9286 135.924 20.0016 137.367C20.0478 138.076 20.1172 138.785 20.2097 139.486L20.3484 140.541L20.541 141.528C20.7424 142.586 20.9996 143.633 21.3115 144.664C21.6274 145.619 21.9742 146.582 22.3594 147.491C22.7447 148.401 23.1299 149.156 23.5459 149.965C23.962 150.774 24.3781 151.413 24.8173 152.13C25.2565 152.847 25.6958 153.44 26.1272 154.033C26.5587 154.626 27.0364 155.243 27.4525 155.721C27.8686 156.198 28.3154 156.73 28.7623 157.215C29.2092 157.701 29.6022 158.086 30.0337 158.51L30.6732 159.134L31.2897 159.689C31.6903 160.051 32.1141 160.459 32.5225 160.767C33.293 161.392 34.1406 162.077 34.888 162.609L36.0515 163.433L37.1687 164.204C37.9392 164.705 38.6481 165.121 39.3801 165.552C42.0447 167.102 44.8181 168.456 47.6785 169.605C50.2524 170.649 52.8781 171.559 55.5454 172.333C58.119 173.103 60.6848 173.704 63.2506 174.228C58.7277 181.718 58.2885 187.065 62.5341 190.671C64.9689 192.721 68.9524 194.277 74.5386 195.171C77.7132 195.672 80.9132 195.996 84.1238 196.142C87.7221 196.288 91.7288 196.35 96.1362 196.226C100.053 196.148 103.97 196.326 107.863 196.758C111.816 197.12 115.784 197.667 119.683 198.122C128.713 199.162 140.88 199.856 153.077 200.087C165.274 200.318 177.495 200.21 186.656 199.979C192.196 199.902 197.859 199.447 203.561 198.946C209.263 198.446 214.973 197.721 220.62 196.943C226.268 196.165 231.847 195.402 237.271 194.709C239.983 194.385 242.665 194.007 245.285 193.722C247.904 193.437 250.447 193.191 253.036 192.952C259.204 192.512 265.339 191.688 271.405 190.486C273.139 190.116 274.903 189.716 276.799 189.161C278.836 188.577 280.842 187.888 282.809 187.096C285.097 186.171 287.315 185.079 289.443 183.829C292.403 182.095 295.11 179.961 297.487 177.488C297.872 177.079 298.211 176.717 298.62 176.247C299.028 175.777 299.39 175.261 299.814 174.752L300.384 173.982L301.001 173.065C301.401 172.441 301.771 171.809 302.156 171.162C302.542 170.514 302.927 169.659 303.281 168.889C303.658 168.071 303.987 167.232 304.268 166.377C304.576 165.452 304.838 164.512 305.038 163.564C305.264 162.547 305.434 161.518 305.547 160.482C305.793 158.353 305.793 156.201 305.547 154.072C305.493 153.517 305.408 153.031 305.315 152.531C305.223 152.03 305.115 151.544 304.999 151.059C304.776 150.096 304.491 149.063 304.191 148.193C303.89 147.322 303.559 146.544 303.197 145.742C302.866 144.977 302.493 144.231 302.079 143.508C301.709 142.861 301.309 142.221 300.916 141.597L300.292 140.672L299.729 139.902C298.387 138.13 296.874 136.494 295.214 135.017C294.544 134.431 293.812 133.807 293.149 133.291C292.486 132.775 291.862 132.343 291.215 131.889C290.239 131.226 289.291 130.63 288.372 130.101C288.711 129.731 289.05 129.33 289.397 128.937C291.245 126.731 292.799 124.294 294.02 121.687C295.704 118.125 296.685 114.271 296.909 110.337C297.027 108.155 296.9 105.966 296.532 103.811C296.362 102.771 296.131 101.741 295.838 100.729C295.578 99.7769 295.265 98.8405 294.898 97.9243C293.716 94.8873 292.07 92.0517 290.021 89.518C289.589 88.9863 289.142 88.4701 288.688 87.9769C288.233 87.4838 287.84 87.0831 287.401 86.6439C286.499 85.7347 285.729 85.1029 284.881 84.3324C284.034 83.5619 283.34 83.115 282.57 82.591L282.655 82.4986C282.886 82.2289 283.14 81.9053 283.379 81.6125C283.857 81.0038 284.319 80.3874 284.773 79.7632L285.428 78.8078C285.667 78.4302 285.898 78.0373 286.122 77.652C288.161 74.2003 289.49 70.3754 290.028 66.4025C290.168 65.2748 290.251 64.1407 290.275 63.0045C290.281 61.87 290.23 60.7359 290.121 59.6066C290.01 58.5154 289.832 57.4321 289.589 56.3627C289.474 55.8311 289.35 55.2994 289.212 54.7832C289.073 54.2669 288.919 53.8277 288.757 53.35C288.165 51.5695 287.412 49.8467 286.507 48.203C285.753 46.8631 284.908 45.5759 283.98 44.3504C283.184 43.2996 282.33 42.2938 281.422 41.3377C280.998 40.8754 280.651 40.5209 280.204 40.1126C279.757 39.7042 279.372 39.342 279.002 38.9953C278.232 38.3327 277.461 37.6469 276.691 37.1153L275.574 36.2754L274.51 35.5434C272.004 33.8524 269.365 32.3657 266.62 31.0975C264.287 30.0098 261.901 29.0403 259.47 28.1927C255.307 26.7509 251.052 25.5924 246.733 24.7254C246.186 24.2322 245.639 23.7622 245.146 23.3153L244.237 22.5063L243.297 21.7358L242.441 21.0577C242.133 20.842 241.81 20.634 241.517 20.449C240.294 19.6706 238.958 19.0858 237.556 18.7154C235.883 18.2784 234.177 17.9794 232.456 17.8216C230.552 17.5981 228.518 17.4748 226.369 17.3361C224.219 17.1975 221.984 17.0434 219.796 16.897C218.702 16.7968 217.6 16.7352 216.537 16.6196C215.997 16.5656 215.466 16.5194 214.934 16.4655L213.277 16.2805C211.074 16.0263 208.939 15.7566 206.944 15.4176C200.556 14.3697 193.845 12.8595 186.579 11.2106C179.313 9.56166 171.331 7.84341 163.525 6.49501C147.846 3.7676 132.025 1.92829 116.139 0.985841C108.202 0.508122 100.24 0.251284 92.2528 0.215326C88.3771 0.230736 84.4397 0.230723 80.2019 0.3463ZM260.079 62.2571H260.017H260.079Z" fill="#60A5FA"/>
</svg>
