<svg width="431" height="112" viewBox="0 0 431 112" fill="none" xmlns="http://www.w3.org/2000/svg">
<path d="M224.986 103.756C239.316 102.939 253.583 101.828 267.727 100.412C281.088 99.0614 294.428 97.5473 307.52 95.5757L312.448 94.8677L317.334 94.0834C320.592 93.5497 323.85 93.0486 327.087 92.4931C333.52 91.3276 340.035 90.2274 346.344 88.942C358.982 86.4258 371.127 83.4739 381.972 79.6505C387.394 77.7443 392.384 75.5876 396.899 73.202C401.373 70.8383 405.27 68.2241 408.425 65.3375C409.043 64.7493 409.621 64.1393 410.136 63.5293L411.559 61.6558L411.435 61.7538C417.662 54.5319 419.125 46.2534 413.352 39.3039C407.723 32.278 395.518 26.9188 381.601 23.1826C373.477 21.0367 364.818 19.2939 355.869 17.8996C346.88 16.5598 337.581 15.3289 328.323 14.3268C309.747 12.3008 290.881 11.0154 271.954 10.4599C234.058 9.34884 195.873 11.157 158.905 15.7756C155.998 16.0914 152.638 16.6034 149.194 17.0609C145.751 17.5402 142.184 17.9323 139.03 18.3462C132.679 19.1087 127.566 19.3484 126.989 18.1502C125.752 15.7429 137.957 11.6908 158.823 9.03295C171.4 7.37725 184.204 6.24441 197.007 5.28585C203.44 4.9046 209.853 4.42532 216.327 4.21836C219.564 4.09854 222.78 3.92426 226.017 3.83711L235.708 3.60837C238.945 3.51033 242.161 3.51033 245.398 3.49944C248.635 3.49944 251.851 3.44498 255.088 3.46676C261.542 3.58658 267.995 3.57569 274.449 3.82622C287.335 4.13122 300.139 4.92639 312.901 5.77602L326.839 6.95244L340.674 8.42296L354.406 10.1876C358.983 10.8194 363.58 11.5383 368.116 12.3552C377.168 14 386.137 15.9607 394.569 18.6294C396.673 19.3048 398.776 19.9693 400.796 20.7426C402.858 21.4616 404.816 22.2785 406.755 23.1173C408.734 23.9233 410.486 24.8928 412.363 25.7751L414.94 27.2456C415.826 27.7249 416.651 28.2368 417.414 28.7815C423.805 32.9861 428.486 38.0621 430.136 43.4867C431.909 48.8895 430.836 54.3903 427.991 59.4881C426.507 62.0261 424.631 64.4879 422.363 66.8516C420.033 69.1935 417.373 71.4265 414.404 73.5397C408.321 77.7552 401.023 81.3171 393.126 84.3562C378.92 89.8353 362.983 93.5061 347.148 96.5996C331.272 99.6278 315.149 102.253 298.778 104.41C266.057 108.745 232.45 111.12 198.76 111.839C167.07 112.394 135.38 111.544 103.876 108.843C95.9587 108.102 88.0827 107.209 80.2684 106.055C72.4748 104.867 64.7427 103.462 57.1965 101.719C49.6915 99.9219 42.3721 97.8087 35.4857 95.2598C28.6199 92.6783 22.3313 89.5738 16.9088 86.0337L13.5483 83.6809C12.4968 82.8748 11.5691 82.0034 10.6001 81.1646L9.1569 79.9011C8.70331 79.4763 8.33198 79.0188 7.91962 78.5722L5.54875 75.8926C2.68284 72.2217 0.971446 68.3112 0.291051 64.3789C-0.368726 60.4467 0.125724 56.5035 1.44528 52.691C2.80607 48.8786 5.05371 45.1968 7.91962 41.6894C13.7339 34.6962 22.0842 28.4111 32.1458 23.0846C37.1766 20.4159 42.6402 17.9759 48.5164 15.83C51.4441 14.7516 54.4753 13.7495 57.6093 12.8236C60.7432 11.9304 63.8562 11.1026 67.0313 10.2856C79.0723 7.32279 92.474 5.24228 104.206 2.93302H103.979C111.608 2.63891 119.546 1.65857 127.566 0.994111C135.566 0.286083 143.566 -0.149626 150.844 0.460367C155.875 0.35144 161.009 0.405903 165.854 0.23162C188.142 -0.487301 193.977 0.449474 186.637 3.29248C185.028 3.92426 186.946 4.71943 181.585 5.18781C181.565 5.18781 181.173 5.14424 181.173 5.14424L181.338 5.18781C173.874 6.21173 165.586 6.5603 157.071 6.77815C148.576 7.0069 139.875 7.12672 131.69 7.61689C111.628 8.83688 91.8762 11.1788 73.9179 15.5795C71.6293 16.0914 69.4851 16.7123 67.279 17.3223C65.0522 17.9105 62.949 18.5532 60.8872 19.2177C56.7636 20.5575 52.8256 22.0933 49.0938 23.749C41.63 27.0713 35.0116 30.9273 29.5066 35.1755C18.5585 43.6392 12.0018 53.8783 13.8986 63.8234C14.3729 66.2961 15.3423 68.7251 16.8474 71.0671L18.0842 72.799C18.5378 73.3654 19.0944 73.921 19.5892 74.4874L21.0943 76.1758C21.6716 76.7204 22.3111 77.2433 22.9296 77.7661C27.8161 82.0143 34.496 85.696 42.2278 88.7242C51.6708 92.504 62.7427 95.2381 74.1651 97.4166C85.6287 99.5951 97.6697 101.066 109.834 102.133C134.39 104.235 159.4 105.118 184.245 104.987C197.874 104.813 211.44 104.192 225.213 103.723L224.986 103.756Z" fill="#60a5fa"/>
</svg>
